<mxfile host="app.diagrams.net" modified="2022-03-16T19:59:54.188Z" agent="5.0 (Windows)" etag="QzS1SUdTSx72pWEJG7Ly" version="17.1.2" type="github">
  <diagram id="iWN_CsWxWYqK973oAs0j" name="Page-1">
    <mxGraphModel dx="1080" dy="479" grid="1" gridSize="10" guides="1" tooltips="1" connect="1" arrows="1" fold="1" page="1" pageScale="1" pageWidth="850" pageHeight="1100" background="#F1FAEE" math="0" shadow="0">
      <root>
        <mxCell id="0" />
        <mxCell id="1" parent="0" />
        <mxCell id="NdXc9xAfJtiQj9tUR-B1-1" value="&lt;h1&gt;Representacion Flujo de Analisis Estadistica Migra&lt;/h1&gt;" style="rounded=0;whiteSpace=wrap;html=1;dashed=1;dashPattern=1 4;fillColor=none;strokeWidth=0;strokeColor=#457B9D;fontColor=#1D3557;" parent="1" vertex="1">
          <mxGeometry x="70" y="10" width="720" height="60" as="geometry" />
        </mxCell>
        <mxCell id="3jcqGerY33Oy3_wfxMgn-15" value="Pool" style="swimlane;childLayout=stackLayout;resizeParent=1;resizeParentMax=0;startSize=20;fillColor=#A8DADC;strokeColor=#457B9D;fontColor=#1D3557;" vertex="1" parent="1">
          <mxGeometry x="50" y="90" width="720" height="400" as="geometry" />
        </mxCell>
        <mxCell id="3jcqGerY33Oy3_wfxMgn-16" value="Conexion" style="swimlane;startSize=20;fillColor=#A8DADC;strokeColor=#457B9D;fontColor=#1D3557;" vertex="1" parent="3jcqGerY33Oy3_wfxMgn-15">
          <mxGeometry y="20" width="120" height="380" as="geometry">
            <mxRectangle y="20" width="30" height="380" as="alternateBounds" />
          </mxGeometry>
        </mxCell>
        <mxCell id="3jcqGerY33Oy3_wfxMgn-19" value="Conexion a Base de datos Oracle" style="shape=process;whiteSpace=wrap;html=1;backgroundOutline=1;rounded=0;sketch=0;strokeColor=#b85450;fillColor=#f8cecc;" vertex="1" parent="3jcqGerY33Oy3_wfxMgn-16">
          <mxGeometry y="110" width="120" height="60" as="geometry" />
        </mxCell>
        <mxCell id="3jcqGerY33Oy3_wfxMgn-17" value="Lane 2" style="swimlane;startSize=20;fillColor=#A8DADC;strokeColor=#457B9D;fontColor=#1D3557;" vertex="1" parent="3jcqGerY33Oy3_wfxMgn-15">
          <mxGeometry x="120" y="20" width="190" height="380" as="geometry" />
        </mxCell>
        <mxCell id="3jcqGerY33Oy3_wfxMgn-18" value="Lane 3" style="swimlane;startSize=20;fillColor=#A8DADC;strokeColor=#457B9D;fontColor=#1D3557;" vertex="1" parent="3jcqGerY33Oy3_wfxMgn-15">
          <mxGeometry x="310" y="20" width="410" height="380" as="geometry" />
        </mxCell>
      </root>
    </mxGraphModel>
  </diagram>
</mxfile>
